<svg id="visual" viewBox="0 0 900 600" width="900" height="600" xmlns="http://www.w3.org/2000/svg" xmlns:xlink="http://www.w3.org/1999/xlink" version="1.1"><g><g transform="translate(826 38)"><path d="M5.9 3C4.5 5.8 -2 5.3 -3.8 2.3C-5.6 -0.8 -2.8 -6.4 0.4 -6.1C3.6 -5.9 7.3 0.2 5.9 3Z" fill="#000000"></path></g><g transform="translate(776 118)"><path d="M0.1 0.1C-0.1 0.3 -0.4 0.4 -0.5 0.3C-0.6 0.2 -0.3 0 -0.1 -0.1C0.1 -0.1 0.2 0 0.1 0.1Z" fill="#000000"></path></g><g transform="translate(350 101)"><path d="M2.4 1.2C1.7 2.6 -1.2 2.5 -1.9 1C-2.7 -0.4 -1.4 -3.1 0.1 -3.1C1.5 -3 3.1 -0.2 2.4 1.2Z" fill="#000000"></path></g><g transform="translate(83 65)"><path d="M1.5 0.9C0.7 2.2 -2 2.5 -2.5 1.3C-3.1 0.1 -1.6 -2.5 -0.2 -2.6C1.1 -2.7 2.3 -0.4 1.5 0.9Z" fill="#000000"></path></g><g transform="translate(555 558)"><path d="M4.3 3.1C3.2 4.3 -1.6 4 -3 2.7C-4.3 1.3 -2.2 -1.2 0.3 -1C2.7 -0.9 5.4 1.9 4.3 3.1Z" fill="#000000"></path></g><g transform="translate(618 498)"><path d="M1.6 1.5C0.6 2.7 -2.8 3.2 -3.5 2.2C-4.2 1.2 -2.1 -1.2 -0.4 -1.4C1.3 -1.7 2.7 0.3 1.6 1.5Z" fill="#000000"></path></g><g transform="translate(668 386)"><path d="M1.1 0.1C1 1 -0.1 0.8 -0.4 -0.2C-0.7 -1.1 -0.4 -2.9 0.2 -2.8C0.7 -2.7 1.3 -0.8 1.1 0.1Z" fill="#000000"></path></g><g transform="translate(721 111)"><path d="M4.2 2.5C3 4.5 -2.1 4.3 -3.4 2.2C-4.8 0.2 -2.4 -3.8 0.2 -3.7C2.7 -3.6 5.4 0.6 4.2 2.5Z" fill="#000000"></path></g><g transform="translate(474 201)"><path d="M2.7 1.9C1.9 3 -1.6 3 -2.5 1.8C-3.4 0.7 -1.7 -1.5 0 -1.5C1.8 -1.4 3.6 0.8 2.7 1.9Z" fill="#000000"></path></g><g transform="translate(148 497)"><path d="M3.5 2.1C2.4 3.9 -2.1 3.9 -3.3 2C-4.4 0.1 -2.2 -3.6 0 -3.5C2.3 -3.5 4.6 0.2 3.5 2.1Z" fill="#000000"></path></g><g transform="translate(191 521)"><path d="M0.4 0.2C0.1 0.7 -0.7 0.8 -0.9 0.4C-1 0 -0.5 -0.9 -0.1 -1C0.3 -1 0.7 -0.2 0.4 0.2Z" fill="#000000"></path></g><g transform="translate(62 19)"><path d="M3.7 2.2C2.3 4.7 -3.2 4.8 -4.5 2.5C-5.8 0.1 -2.9 -4.8 -0.2 -4.8C2.6 -4.9 5.2 -0.2 3.7 2.2Z" fill="#000000"></path></g><g transform="translate(714 146)"><path d="M1.6 0.6C1.3 1.5 -0.3 1.3 -0.8 0.3C-1.3 -0.7 -0.6 -2.5 0.2 -2.4C1 -2.3 1.9 -0.3 1.6 0.6Z" fill="#000000"></path></g><g transform="translate(843 321)"><path d="M1.1 0.5C0.5 1.7 -1.6 1.9 -2 0.8C-2.4 -0.3 -1.2 -2.6 -0.2 -2.7C0.8 -2.8 1.7 -0.7 1.1 0.5Z" fill="#000000"></path></g><g transform="translate(724 274)"><path d="M1 0.5C0.2 1.9 -2.2 2.3 -2.7 1.1C-3.1 -0.1 -1.6 -2.9 -0.3 -3.1C0.9 -3.3 1.8 -0.9 1 0.5Z" fill="#000000"></path></g><g transform="translate(382 530)"><path d="M3.3 1.9C2 4.3 -3 4.5 -4.2 2.2C-5.4 0 -2.7 -4.7 -0.2 -4.8C2.3 -4.9 4.7 -0.4 3.3 1.9Z" fill="#000000"></path></g><g transform="translate(80 357)"><path d="M0.9 0.5C0.6 1.1 -0.8 1.2 -1.1 0.5C-1.4 -0.1 -0.7 -1.5 0 -1.5C0.6 -1.5 1.3 -0.2 0.9 0.5Z" fill="#000000"></path></g><g transform="translate(115 332)"><path d="M1.5 1.2C0.6 2.5 -2.5 2.9 -3.2 1.7C-3.8 0.6 -1.9 -2.1 -0.3 -2.2C1.2 -2.4 2.4 -0.2 1.5 1.2Z" fill="#000000"></path></g><g transform="translate(441 451)"><path d="M0.7 0.6C0.3 1 -0.9 1.1 -1.2 0.8C-1.5 0.4 -0.7 -0.4 -0.1 -0.5C0.5 -0.5 1.1 0.2 0.7 0.6Z" fill="#000000"></path></g><g transform="translate(499 62)"><path d="M0.2 0.1C0.1 0.2 -0.1 0.2 -0.2 0.1C-0.3 -0.1 -0.1 -0.4 0 -0.4C0.1 -0.4 0.3 -0.1 0.2 0.1Z" fill="#000000"></path></g><g transform="translate(813 109)"><path d="M0.2 0.1C-0.2 1 -1.5 1.3 -1.7 0.7C-1.9 0 -1 -1.7 -0.3 -1.8C0.4 -2 0.7 -0.7 0.2 0.1Z" fill="#000000"></path></g><g transform="translate(786 158)"><path d="M1.2 1C0.7 1.5 -1.1 1.6 -1.5 1.1C-1.9 0.6 -1 -0.5 -0.1 -0.6C0.8 -0.6 1.7 0.4 1.2 1Z" fill="#000000"></path></g><g transform="translate(33 561)"><path d="M1.3 0.9C0.8 1.6 -1.2 1.7 -1.6 1C-2.1 0.2 -1 -1.3 -0.1 -1.4C0.9 -1.4 1.8 0.1 1.3 0.9Z" fill="#000000"></path></g><g transform="translate(201 323)"><path d="M3.8 2.3C2.7 4.2 -2.1 4 -3.3 2.1C-4.5 0.1 -2.3 -3.7 0.1 -3.6C2.5 -3.5 4.9 0.4 3.8 2.3Z" fill="#000000"></path></g><g transform="translate(622 258)"><path d="M0.7 0.1C0.1 1.5 -1.8 1.8 -2.1 0.6C-2.4 -0.6 -1.2 -3.3 -0.3 -3.4C0.7 -3.6 1.3 -1.2 0.7 0.1Z" fill="#000000"></path></g><g transform="translate(657 496)"><path d="M1 0.5C0.1 2.2 -2.6 2.6 -3.1 1.3C-3.6 -0.1 -1.8 -3.4 -0.4 -3.6C1 -3.8 1.9 -1.1 1 0.5Z" fill="#000000"></path></g><g transform="translate(8 121)"><path d="M0.8 0.4C0.7 0.8 -0.2 0.7 -0.5 0.3C-0.7 -0.1 -0.4 -0.9 0.1 -0.9C0.5 -0.8 1 0 0.8 0.4Z" fill="#000000"></path></g><g transform="translate(30 424)"><path d="M0.4 0.2C0.3 0.4 -0.2 0.4 -0.4 0.2C-0.5 0 -0.3 -0.5 0 -0.5C0.3 -0.5 0.5 0 0.4 0.2Z" fill="#000000"></path></g><g transform="translate(403 94)"><path d="M2.6 1.7C2.2 2.3 -0.3 2 -1.1 1.2C-1.8 0.4 -0.9 -0.7 0.3 -0.5C1.5 -0.3 3.1 1.2 2.6 1.7Z" fill="#000000"></path></g><g transform="translate(893 436)"><path d="M1.2 0.9C-0.4 3.4 -4.9 4.4 -5.6 2.5C-6.3 0.5 -3.2 -4.6 -0.9 -5.1C1.4 -5.6 2.8 -1.6 1.2 0.9Z" fill="#000000"></path></g><g transform="translate(207 21)"><path d="M1.1 -0.3C0.3 1.9 -2.1 2.3 -2.6 0.2C-3 -1.8 -1.5 -6.3 -0.3 -6.4C0.9 -6.6 1.8 -2.5 1.1 -0.3Z" fill="#000000"></path></g><g transform="translate(697 307)"><path d="M0.6 0.3C0.4 0.6 -0.3 0.6 -0.5 0.2C-0.7 -0.1 -0.3 -0.9 0 -0.8C0.4 -0.8 0.7 -0.1 0.6 0.3Z" fill="#000000"></path></g><g transform="translate(617 190)"><path d="M0.6 0.4C0.4 0.6 -0.3 0.6 -0.4 0.3C-0.6 0 -0.3 -0.5 0 -0.5C0.4 -0.4 0.8 0.1 0.6 0.4Z" fill="#000000"></path></g><g transform="translate(124 457)"><path d="M1.5 1.4C0.5 2.5 -2.7 3 -3.3 2C-3.9 1.1 -2 -1.3 -0.4 -1.5C1.2 -1.7 2.4 0.2 1.5 1.4Z" fill="#000000"></path></g><g transform="translate(590 211)"><path d="M0.1 0.1C0.1 0.2 -0.2 0.2 -0.3 0.1C-0.3 0 -0.2 -0.2 0 -0.3C0.1 -0.3 0.2 0 0.1 0.1Z" fill="#000000"></path></g><g transform="translate(467 530)"><path d="M0.3 0.3C0.2 0.4 -0.4 0.5 -0.5 0.3C-0.6 0.2 -0.3 -0.2 0 -0.2C0.2 -0.2 0.4 0.1 0.3 0.3Z" fill="#000000"></path></g><g transform="translate(777 57)"><path d="M0.3 0.2C-0.5 1.6 -2.8 2.3 -3.1 1.2C-3.4 0 -1.7 -2.8 -0.6 -3.1C0.6 -3.5 1.1 -1.2 0.3 0.2Z" fill="#000000"></path></g><g transform="translate(37 159)"><path d="M0.6 0.3C0.4 0.6 -0.3 0.6 -0.4 0.3C-0.6 0 -0.3 -0.6 0 -0.6C0.4 -0.6 0.8 0 0.6 0.3Z" fill="#000000"></path></g><g transform="translate(576 456)"><path d="M0.9 0.4C0.6 1 -0.6 1 -0.9 0.4C-1.2 -0.3 -0.6 -1.6 0 -1.6C0.6 -1.6 1.2 -0.3 0.9 0.4Z" fill="#000000"></path></g><g transform="translate(694 204)"><path d="M1 0.5C0.5 1.3 -1 1.4 -1.4 0.7C-1.7 -0.1 -0.9 -1.6 -0.1 -1.7C0.7 -1.7 1.4 -0.3 1 0.5Z" fill="#000000"></path></g><g transform="translate(677 93)"><path d="M4.1 2.8C3.1 4 -1.3 3.7 -2.6 2.2C-3.8 0.8 -1.9 -1.7 0.3 -1.6C2.5 -1.4 5.1 1.5 4.1 2.8Z" fill="#000000"></path></g><g transform="translate(444 258)"><path d="M1.3 0.3C1 1.2 -0.4 1.1 -0.8 0.1C-1.1 -0.9 -0.6 -2.7 0.1 -2.7C0.8 -2.6 1.6 -0.6 1.3 0.3Z" fill="#000000"></path></g><g transform="translate(47 221)"><path d="M1.6 0.5C0.9 2.2 -1.8 2.4 -2.4 0.7C-2.9 -0.9 -1.5 -4.4 -0.1 -4.5C1.2 -4.5 2.4 -1.3 1.6 0.5Z" fill="#000000"></path></g><g transform="translate(880 99)"><path d="M2.9 2.4C1.9 3.5 -2.2 3.6 -3.2 2.5C-4.2 1.4 -2.1 -0.8 -0.1 -0.9C2 -0.9 4 1.3 2.9 2.4Z" fill="#000000"></path></g><g transform="translate(878 236)"><path d="M1.4 0.4C1 1.5 -0.7 1.5 -1.2 0.3C-1.6 -0.8 -0.8 -3 0 -3C0.9 -2.9 1.8 -0.7 1.4 0.4Z" fill="#000000"></path></g><g transform="translate(138 293)"><path d="M0.2 0C0.2 0.2 0 0.2 -0.1 0C-0.2 -0.2 -0.1 -0.5 0 -0.5C0.1 -0.5 0.3 -0.1 0.2 0Z" fill="#000000"></path></g><g transform="translate(583 121)"><path d="M2.1 1.2C1.3 2.5 -1.6 2.6 -2.3 1.3C-3 -0.1 -1.5 -2.7 -0.1 -2.8C1.4 -2.8 2.8 -0.2 2.1 1.2Z" fill="#000000"></path></g><g transform="translate(665 200)"><path d="M0.3 0C0.1 0.5 -0.6 0.6 -0.7 0.1C-0.8 -0.3 -0.4 -1.3 -0.1 -1.4C0.2 -1.4 0.5 -0.5 0.3 0Z" fill="#000000"></path></g><g transform="translate(329 326)"><path d="M0.8 0.7C-0.2 2.1 -3 2.7 -3.4 1.6C-3.9 0.5 -1.9 -2.3 -0.5 -2.7C0.9 -3 1.7 -0.7 0.8 0.7Z" fill="#000000"></path></g><g transform="translate(446 159)"><path d="M1.7 1.5C0.7 2.7 -2.7 3.1 -3.4 2.1C-4.1 1.1 -2 -1.3 -0.3 -1.5C1.3 -1.7 2.7 0.3 1.7 1.5Z" fill="#000000"></path></g><g transform="translate(96 299)"><path d="M4.6 2.7C4.2 3.4 0.8 2.4 -0.4 1.2C-1.7 0 -0.8 -1.5 0.8 -1C2.5 -0.5 5 1.9 4.6 2.7Z" fill="#000000"></path></g><g transform="translate(781 337)"><path d="M0.7 0.2C0.4 0.9 -0.6 0.9 -0.9 0.3C-1.1 -0.4 -0.6 -1.7 0 -1.7C0.5 -1.7 0.9 -0.5 0.7 0.2Z" fill="#000000"></path></g><g transform="translate(747 229)"><path d="M0.6 0.4C0.4 0.7 -0.3 0.7 -0.5 0.3C-0.7 0 -0.4 -0.6 0 -0.6C0.4 -0.6 0.8 0.1 0.6 0.4Z" fill="#000000"></path></g><g transform="translate(327 43)"><path d="M1.7 1.4C0.6 3 -3.1 3.4 -3.8 2.1C-4.5 0.8 -2.3 -2.3 -0.4 -2.5C1.4 -2.7 2.9 -0.1 1.7 1.4Z" fill="#000000"></path></g><g transform="translate(335 565)"><path d="M0.4 0.3C0.4 0.4 -0.1 0.3 -0.2 0.2C-0.3 0.1 -0.2 -0.2 0 -0.1C0.3 -0.1 0.5 0.2 0.4 0.3Z" fill="#000000"></path></g><g transform="translate(286 109)"><path d="M0.3 0.3C0.2 0.4 -0.3 0.4 -0.4 0.3C-0.5 0.2 -0.3 -0.1 0 -0.2C0.2 -0.2 0.4 0.1 0.3 0.3Z" fill="#000000"></path></g><g transform="translate(146 589)"><path d="M2 0.3C1.2 2.5 -1.7 2.6 -2.4 0.5C-3.1 -1.7 -1.6 -6.1 -0.1 -6.1C1.4 -6.2 2.8 -1.9 2 0.3Z" fill="#000000"></path></g><g transform="translate(473 294)"><path d="M1.3 0.7C1 1.3 -0.4 1.2 -0.8 0.6C-1.2 0 -0.6 -1.1 0.1 -1.1C0.8 -1 1.6 0.2 1.3 0.7Z" fill="#000000"></path></g><g transform="translate(652 456)"><path d="M0.7 0C0.4 0.9 -0.7 0.9 -0.9 0.1C-1.2 -0.8 -0.6 -2.5 -0.1 -2.5C0.5 -2.6 0.9 -0.9 0.7 0Z" fill="#000000"></path></g><g transform="translate(575 597)"><path d="M0.7 1.1C-0.3 2.2 -3.3 2.9 -3.8 2.2C-4.2 1.4 -2.1 -0.8 -0.6 -1.2C0.9 -1.5 1.8 0 0.7 1.1Z" fill="#000000"></path></g><g transform="translate(519 138)"><path d="M4.6 2.5C3.6 4.4 -1.1 3.9 -2.5 1.8C-3.9 -0.3 -2 -3.9 0.4 -3.7C2.8 -3.4 5.6 0.7 4.6 2.5Z" fill="#000000"></path></g><g transform="translate(866 484)"><path d="M3.3 1.2C3 2.4 0.6 1.7 -0.3 0.1C-1.2 -1.4 -0.6 -3.9 0.6 -3.6C1.8 -3.2 3.6 0 3.3 1.2Z" fill="#000000"></path></g><g transform="translate(847 517)"><path d="M1.3 0.8C1.2 1 0.2 0.8 -0.2 0.4C-0.6 0.1 -0.3 -0.4 0.2 -0.2C0.7 -0.1 1.5 0.6 1.3 0.8Z" fill="#000000"></path></g><g transform="translate(129 84)"><path d="M0.7 0.5C0.5 0.8 -0.4 0.7 -0.6 0.5C-0.8 0.2 -0.4 -0.2 0 -0.2C0.5 -0.2 0.9 0.3 0.7 0.5Z" fill="#000000"></path></g><g transform="translate(133 32)"><path d="M4.3 1.6C3.9 3.2 0.8 2.3 -0.4 0.3C-1.6 -1.7 -0.8 -4.8 0.8 -4.3C2.4 -3.9 4.7 0.1 4.3 1.6Z" fill="#000000"></path></g><g transform="translate(3 8)"><path d="M2.1 1.4C1.1 2.9 -2.4 3.2 -3.2 1.8C-4 0.3 -2 -2.8 -0.2 -2.9C1.6 -3 3.1 -0.2 2.1 1.4Z" fill="#000000"></path></g><g transform="translate(797 296)"><path d="M1.4 0.9C1.1 1.4 -0.5 1.3 -0.9 0.8C-1.3 0.2 -0.7 -0.7 0.1 -0.7C0.9 -0.6 1.8 0.5 1.4 0.9Z" fill="#000000"></path></g><g transform="translate(286 231)"><path d="M0.4 0.1C0.3 0.4 -0.2 0.4 -0.3 0.1C-0.5 -0.3 -0.2 -0.9 0 -0.9C0.3 -0.9 0.5 -0.2 0.4 0.1Z" fill="#000000"></path></g><g transform="translate(311 267)"><path d="M0.3 0.1C0.2 0.2 0 0.2 -0.1 0C-0.2 -0.2 -0.1 -0.4 0 -0.4C0.2 -0.4 0.3 -0.1 0.3 0.1Z" fill="#000000"></path></g><g transform="translate(690 523)"><path d="M3.4 2.1C2.3 4 -2.3 4 -3.5 2.2C-4.6 0.3 -2.3 -3.3 0 -3.3C2.3 -3.3 4.6 0.3 3.4 2.1Z" fill="#000000"></path></g><g transform="translate(23 487)"><path d="M3.3 2.4C2.2 3.9 -2.4 3.9 -3.5 2.5C-4.6 1 -2.3 -2 0 -2C2.2 -2.1 4.5 0.9 3.3 2.4Z" fill="#000000"></path></g><g transform="translate(45 376)"><path d="M1.5 0.5C0.9 1.8 -1.3 1.9 -1.8 0.6C-2.3 -0.6 -1.1 -3.2 -0.1 -3.2C1 -3.3 2 -0.8 1.5 0.5Z" fill="#000000"></path></g><g transform="translate(182 12)"><path d="M0.5 0.3C0.4 0.4 0 0.3 -0.2 0.2C-0.3 0 -0.1 -0.2 0.1 -0.2C0.3 -0.1 0.5 0.2 0.5 0.3Z" fill="#000000"></path></g><g transform="translate(236 549)"><path d="M0.3 0.4C-0.3 1.1 -1.8 1.5 -2 1C-2.2 0.6 -1.1 -0.7 -0.3 -0.9C0.4 -1.1 0.8 -0.2 0.3 0.4Z" fill="#000000"></path></g><g transform="translate(773 593)"><path d="M2.2 1.3C1.5 2.4 -1.2 2.4 -1.9 1.2C-2.6 0 -1.3 -2.3 0.1 -2.3C1.4 -2.2 2.9 0.1 2.2 1.3Z" fill="#000000"></path></g><g transform="translate(374 208)"><path d="M1.3 0.5C0.1 2.9 -3.7 3.6 -4.3 1.5C-5 -0.6 -2.5 -5.4 -0.6 -5.8C1.3 -6.1 2.6 -1.9 1.3 0.5Z" fill="#000000"></path></g><g transform="translate(622 55)"><path d="M3.9 2.6C2.6 4.6 -2.7 4.6 -4.1 2.6C-5.4 0.6 -2.7 -3.5 0 -3.5C2.6 -3.5 5.3 0.5 3.9 2.6Z" fill="#000000"></path></g><g transform="translate(272 302)"><path d="M0.8 0.8C0.1 1.8 -2.3 2.3 -2.7 1.4C-3.1 0.6 -1.6 -1.5 -0.4 -1.7C0.8 -1.9 1.6 -0.3 0.8 0.8Z" fill="#000000"></path></g><g transform="translate(494 417)"><path d="M1.8 0.9C1.4 1.6 -0.3 1.4 -0.8 0.6C-1.3 -0.2 -0.7 -1.6 0.2 -1.5C1 -1.4 2.1 0.2 1.8 0.9Z" fill="#000000"></path></g><g transform="translate(241 411)"><path d="M0.8 0.3C0.6 0.7 -0.2 0.6 -0.4 0.2C-0.6 -0.2 -0.3 -1 0.1 -1C0.5 -0.9 0.9 -0.1 0.8 0.3Z" fill="#000000"></path></g><g transform="translate(183 147)"><path d="M1.5 0.7C1.3 1.4 -0.2 1.2 -0.6 0.4C-1.1 -0.4 -0.5 -1.8 0.2 -1.7C0.9 -1.6 1.8 0 1.5 0.7Z" fill="#000000"></path></g><g transform="translate(408 518)"><path d="M3.2 1.9C2.6 2.9 -0.5 2.5 -1.4 1.3C-2.4 0.1 -1.2 -1.9 0.4 -1.7C1.9 -1.5 3.8 0.9 3.2 1.9Z" fill="#000000"></path></g><g transform="translate(758 433)"><path d="M0.7 0.5C0.2 1.2 -1.3 1.4 -1.6 0.8C-1.9 0.2 -1 -1.2 -0.2 -1.3C0.6 -1.4 1.2 -0.2 0.7 0.5Z" fill="#000000"></path></g><g transform="translate(186 90)"><path d="M0.3 0.4C-0.3 1.1 -1.8 1.6 -2 1C-2.3 0.5 -1.1 -1 -0.4 -1.2C0.4 -1.4 0.9 -0.3 0.3 0.4Z" fill="#000000"></path></g><g transform="translate(797 269)"><path d="M0.4 0.1C0.3 0.4 -0.2 0.4 -0.3 0.1C-0.4 -0.2 -0.2 -0.7 0 -0.7C0.2 -0.7 0.5 -0.1 0.4 0.1Z" fill="#000000"></path></g><g transform="translate(49 592)"><path d="M3.4 1.7C2.8 3 -0.4 2.5 -1.4 1C-2.4 -0.6 -1.2 -3.2 0.4 -3C2 -2.8 4 0.3 3.4 1.7Z" fill="#000000"></path></g><g transform="translate(229 274)"><path d="M1.8 0.5C1.4 1.8 -0.6 1.7 -1.2 0.3C-1.7 -1.1 -0.9 -3.8 0.1 -3.7C1.1 -3.6 2.3 -0.8 1.8 0.5Z" fill="#000000"></path></g><g transform="translate(264 373)"><path d="M1.3 1.8C-0.1 3.2 -4.2 4 -4.9 3.1C-5.6 2.1 -2.8 -0.6 -0.7 -1.1C1.4 -1.5 2.7 0.4 1.3 1.8Z" fill="#000000"></path></g><g transform="translate(448 395)"><path d="M0.3 0.2C-0.3 1.2 -1.9 1.6 -2.1 0.8C-2.3 0 -1.2 -1.9 -0.4 -2.1C0.4 -2.3 0.8 -0.8 0.3 0.2Z" fill="#000000"></path></g><g transform="translate(390 416)"><path d="M2.9 2C2.1 3 -1.3 2.9 -2.2 1.8C-3.1 0.7 -1.6 -1.3 0.1 -1.3C1.8 -1.2 3.7 1 2.9 2Z" fill="#000000"></path></g><g transform="translate(438 321)"><path d="M4 1.5C3.6 3 0.6 2.2 -0.5 0.3C-1.6 -1.6 -0.8 -4.6 0.7 -4.2C2.2 -3.8 4.4 0 4 1.5Z" fill="#000000"></path></g><g transform="translate(665 341)"><path d="M0.3 0.2C0.1 0.4 -0.3 0.4 -0.4 0.3C-0.5 0.2 -0.2 -0.1 0 -0.1C0.2 -0.1 0.4 0.1 0.3 0.2Z" fill="#000000"></path></g><g transform="translate(626 433)"><path d="M0.3 -0.1C-0.2 1 -1.6 1.4 -1.8 0.4C-2 -0.5 -1 -2.6 -0.3 -2.8C0.4 -3 0.8 -1.2 0.3 -0.1Z" fill="#000000"></path></g><g transform="translate(551 498)"><path d="M0.4 0.2C0.3 0.4 -0.2 0.4 -0.3 0.2C-0.5 0 -0.2 -0.4 0 -0.4C0.2 -0.4 0.5 0 0.4 0.2Z" fill="#000000"></path></g><g transform="translate(836 182)"><path d="M0.8 0.4C0.6 0.8 -0.2 0.7 -0.5 0.3C-0.7 -0.2 -0.4 -1 0.1 -0.9C0.5 -0.9 1 0 0.8 0.4Z" fill="#000000"></path></g><g transform="translate(355 518)"><path d="M2 1.4C1.3 2.3 -1.4 2.3 -2 1.4C-2.7 0.4 -1.3 -1.4 0 -1.5C1.3 -1.5 2.6 0.4 2 1.4Z" fill="#000000"></path></g><g transform="translate(140 212)"><path d="M0.4 0.3C0.3 0.4 -0.2 0.4 -0.4 0.3C-0.5 0.2 -0.2 0 0 0C0.3 0 0.5 0.2 0.4 0.3Z" fill="#000000"></path></g><g transform="translate(507 455)"><path d="M0.3 0.1C0.1 0.4 -0.3 0.4 -0.4 0.2C-0.5 0 -0.2 -0.5 0 -0.5C0.2 -0.5 0.4 -0.1 0.3 0.1Z" fill="#000000"></path></g><g transform="translate(760 87)"><path d="M1.7 1C1.3 1.6 -0.3 1.4 -0.8 0.7C-1.4 0 -0.7 -1.1 0.2 -1C1 -0.9 2 0.4 1.7 1Z" fill="#000000"></path></g><g transform="translate(265 567)"><path d="M1 0.5C0.9 0.8 0 0.6 -0.3 0.3C-0.5 -0.1 -0.3 -0.7 0.1 -0.6C0.6 -0.5 1.1 0.2 1 0.5Z" fill="#000000"></path></g><g transform="translate(426 496)"><path d="M2.7 1.4C2 2.8 -1 2.6 -1.9 1.1C-2.7 -0.4 -1.4 -3.2 0.2 -3.1C1.7 -3 3.4 0 2.7 1.4Z" fill="#000000"></path></g><g transform="translate(408 289)"><path d="M1.2 0.4C0.7 1.7 -1.3 1.8 -1.7 0.6C-2.2 -0.6 -1.1 -3.1 -0.1 -3.2C0.9 -3.2 1.8 -0.8 1.2 0.4Z" fill="#000000"></path></g><g transform="translate(228 175)"><path d="M0.2 0.3C-0.1 0.7 -1.1 1 -1.3 0.6C-1.4 0.3 -0.7 -0.6 -0.2 -0.7C0.3 -0.8 0.5 -0.2 0.2 0.3Z" fill="#000000"></path></g><g transform="translate(603 582)"><path d="M1.2 0.6C0.9 1.2 -0.5 1.1 -0.8 0.5C-1.2 -0.1 -0.6 -1.2 0.1 -1.1C0.7 -1.1 1.4 0.1 1.2 0.6Z" fill="#000000"></path></g><g transform="translate(30 105)"><path d="M1.1 0.7C0.8 1.2 -0.5 1.1 -0.8 0.6C-1.2 0.1 -0.6 -0.9 0.1 -0.9C0.7 -0.8 1.4 0.2 1.1 0.7Z" fill="#000000"></path></g><g transform="translate(469 6)"><path d="M2.6 1.8C1.1 4 -3.8 4.5 -4.8 2.6C-5.8 0.6 -2.9 -3.8 -0.4 -4.1C2 -4.3 4.1 -0.4 2.6 1.8Z" fill="#000000"></path></g><g transform="translate(303 403)"><path d="M5.7 3.2C4.7 4.9 -0.5 4.1 -2.2 2C-3.8 -0.1 -1.9 -3.5 0.7 -3.1C3.3 -2.7 6.7 1.5 5.7 3.2Z" fill="#000000"></path></g><g transform="translate(736 37)"><path d="M2.2 1.4C1.8 2 -0.3 1.7 -0.9 1C-1.6 0.2 -0.8 -0.9 0.3 -0.8C1.3 -0.6 2.6 0.8 2.2 1.4Z" fill="#000000"></path></g><g transform="translate(821 208)"><path d="M0.7 0.5C0.5 0.9 -0.5 0.9 -0.8 0.5C-1 0.2 -0.5 -0.4 0 -0.5C0.5 -0.5 1 0.2 0.7 0.5Z" fill="#000000"></path></g><g transform="translate(506 257)"><path d="M0.6 0.3C0.4 0.8 -0.5 0.8 -0.7 0.3C-0.9 -0.1 -0.5 -1 0 -1C0.4 -1.1 0.9 -0.2 0.6 0.3Z" fill="#000000"></path></g><g transform="translate(231 358)"><path d="M0.4 0.2C-0.4 1.6 -2.6 2.2 -2.9 1C-3.2 -0.1 -1.6 -3 -0.5 -3.3C0.6 -3.6 1.2 -1.3 0.4 0.2Z" fill="#000000"></path></g><g transform="translate(469 138)"><path d="M0.1 0C0.1 0.2 -0.2 0.2 -0.3 0.1C-0.3 -0.1 -0.2 -0.5 0 -0.5C0.1 -0.5 0.2 -0.2 0.1 0Z" fill="#000000"></path></g><g transform="translate(307 80)"><path d="M4 2C3.4 3.3 -0.1 2.7 -1.2 1C-2.4 -0.6 -1.2 -3.3 0.5 -3C2.3 -2.7 4.6 0.6 4 2Z" fill="#000000"></path></g><g transform="translate(152 431)"><path d="M2.6 1C1.9 2.7 -1.1 2.5 -1.9 0.8C-2.7 -0.9 -1.4 -4.2 0.1 -4.2C1.6 -4.1 3.3 -0.6 2.6 1Z" fill="#000000"></path></g><g transform="translate(783 212)"><path d="M1.5 1.1C1.1 1.6 -0.7 1.5 -1.2 1C-1.7 0.4 -0.8 -0.6 0.1 -0.6C1 -0.6 1.9 0.5 1.5 1.1Z" fill="#000000"></path></g><g transform="translate(287 54)"><path d="M4.2 1.3C3.7 3.3 0.4 2.5 -0.8 0.1C-1.9 -2.3 -1 -6.4 0.7 -6C2.3 -5.6 4.7 -0.7 4.2 1.3Z" fill="#000000"></path></g><g transform="translate(163 226)"><path d="M0.6 0.2C0.5 0.5 0 0.4 -0.1 0.1C-0.3 -0.2 -0.2 -0.7 0.1 -0.7C0.3 -0.6 0.6 0 0.6 0.2Z" fill="#000000"></path></g><g transform="translate(389 55)"><path d="M1 0.5C0.8 1 -0.3 0.9 -0.6 0.4C-0.9 -0.1 -0.5 -0.9 0.1 -0.9C0.6 -0.8 1.2 0.1 1 0.5Z" fill="#000000"></path></g><g transform="translate(378 256)"><path d="M2.5 1.2C1.3 3.6 -3 3.9 -4 1.7C-4.9 -0.5 -2.5 -5.2 -0.3 -5.4C1.9 -5.6 3.8 -1.2 2.5 1.2Z" fill="#000000"></path></g><g transform="translate(537 193)"><path d="M2.3 1C1.8 2.2 -0.6 1.9 -1.3 0.7C-2 -0.6 -1 -2.9 0.2 -2.8C1.4 -2.6 2.8 -0.1 2.3 1Z" fill="#000000"></path></g><g transform="translate(380 182)"><path d="M0.8 0.5C0 1.8 -2.3 2.2 -2.7 1.2C-3.1 0.1 -1.5 -2.5 -0.4 -2.7C0.8 -2.9 1.6 -0.8 0.8 0.5Z" fill="#000000"></path></g><g transform="translate(89 142)"><path d="M3.6 1.9C3.2 2.8 0.4 2.1 -0.6 0.9C-1.6 -0.4 -0.8 -2.1 0.6 -1.7C2 -1.4 4 1 3.6 1.9Z" fill="#000000"></path></g><g transform="translate(458 493)"><path d="M1.6 1C0.9 2.3 -1.9 2.5 -2.5 1.3C-3.1 0.1 -1.5 -2.5 -0.2 -2.6C1.2 -2.7 2.4 -0.3 1.6 1Z" fill="#000000"></path></g><g transform="translate(204 359)"><path d="M2.1 1C1.7 2 -0.5 1.8 -1.2 0.6C-1.8 -0.5 -0.9 -2.6 0.2 -2.5C1.3 -2.4 2.6 -0.1 2.1 1Z" fill="#000000"></path></g></g></svg>